<?xml version="1.0" encoding="iso-8859-1"?>
<!-- Generator: Adobe Illustrator 19.0.0, SVG Export Plug-In . SVG Version: 6.00 Build 0)  -->
<svg version="1.1" id="Layer_1" xmlns="http://www.w3.org/2000/svg" xmlns:xlink="http://www.w3.org/1999/xlink" x="0px" y="0px"
	 viewBox="0 0 512 512" style="enable-background:new 0 0 512 512;" xml:space="preserve">
<g>
	<rect x="73.532" y="449.362" style="fill:#EFC7B6;" width="364.936" height="54.468"/>
	<rect x="73.532" y="168.851" style="fill:#EFC7B6;" width="364.936" height="54.468"/>
</g>
<g>
	<path style="fill:#EE5F80;" d="M413.957,76.255c13.541,0,24.511,10.97,24.511,24.511s-10.97,24.511-24.511,24.511
		c-13.541,0-24.511-10.97-24.511-24.511S400.417,76.255,413.957,76.255z"/>
	<path style="fill:#EE5F80;" d="M98.043,8.17c13.541,0,24.511,10.97,24.511,24.511s-10.97,24.511-24.511,24.511
		s-24.511-10.97-24.511-24.511S84.502,8.17,98.043,8.17z"/>
</g>
<g>
	<polygon style="fill:#ECD591;" points="170.213,223.319 84.426,449.362 84.426,223.319 	"/>
	<polygon style="fill:#ECD591;" points="427.574,223.319 427.574,449.362 341.787,223.319 	"/>
</g>
<polygon style="fill:#EEC278;" points="341.787,223.319 256,449.362 170.213,223.319 "/>
<polygon style="fill:#EF8770;" points="341.787,223.319 427.574,449.362 256,449.362 "/>
<polygon style="fill:#EE5F80;" points="170.213,223.319 256,449.362 84.426,449.362 "/>
<g>
	<path style="fill:#700019;" d="M438.468,160.681H73.532c-4.513,0-8.17,3.658-8.17,8.17v54.468c0,4.512,3.657,8.17,8.17,8.17h2.723
		v209.702h-2.723c-4.513,0-8.17,3.658-8.17,8.17v54.468c0,4.512,3.657,8.17,8.17,8.17h364.936c4.513,0,8.17-3.658,8.17-8.17v-54.468
		c0-4.512-3.657-8.17-8.17-8.17h-2.723V231.489h2.723c4.513,0,8.17-3.658,8.17-8.17v-54.468
		C446.638,164.339,442.981,160.681,438.468,160.681z M117.106,231.489c4.513,0,8.17-3.658,8.17-8.17c0-4.512-3.657-8.17-8.17-8.17
		H81.702v-38.128h348.596v38.128H149.787c-4.513,0-8.17,3.658-8.17,8.17c0,4.512,3.657,8.17,8.17,8.17h8.586l-65.778,173.32v-173.32
		H117.106z M182.052,231.489h147.896L256,426.336L182.052,231.489z M244.161,441.191H96.265l73.948-194.846L244.161,441.191z
		 M430.298,495.66H81.702v-38.128h280.511c4.513,0,8.17-3.658,8.17-8.17c0-4.512-3.657-8.17-8.17-8.17h-94.374l73.948-194.846
		l73.948,194.846h-20.842c-4.513,0-8.17,3.658-8.17,8.17c0,4.512,3.657,8.17,8.17,8.17h32.654c0.075,0,2.751,0,2.751,0V495.66z
		 M419.404,404.809l-65.778-173.32h65.778V404.809z"/>
	<path style="fill:#700019;" d="M382.31,92.596H98.043c-4.513,0-8.17,3.658-8.17,8.17c0,4.512,3.657,8.17,8.17,8.17H382.31
		c3.637,14.08,16.447,24.511,31.647,24.511c18.02,0,32.681-14.661,32.681-32.681s-14.661-32.681-32.681-32.681
		C398.758,68.085,385.948,78.516,382.31,92.596z M430.298,100.766c0,9.01-7.33,16.34-16.34,16.34s-16.34-7.33-16.34-16.34
		s7.33-16.34,16.34-16.34S430.298,91.756,430.298,100.766z"/>
	<path style="fill:#700019;" d="M98.043,65.362c15.2,0,28.01-10.431,31.647-24.511h284.268c4.513,0,8.17-3.658,8.17-8.17
		s-3.657-8.17-8.17-8.17H129.69C126.052,10.431,113.242,0,98.043,0c-18.02,0-32.681,14.661-32.681,32.681
		S80.022,65.362,98.043,65.362z M98.043,16.34c9.01,0,16.34,7.33,16.34,16.34s-7.33,16.34-16.34,16.34s-16.34-7.33-16.34-16.34
		S89.032,16.34,98.043,16.34z"/>
</g>
<g>
</g>
<g>
</g>
<g>
</g>
<g>
</g>
<g>
</g>
<g>
</g>
<g>
</g>
<g>
</g>
<g>
</g>
<g>
</g>
<g>
</g>
<g>
</g>
<g>
</g>
<g>
</g>
<g>
</g>
</svg>
